<svg width="60" height="70" viewBox="1180 10 60 70" fill="none" xmlns="http://www.w3.org/2000/svg">
<path d="M1215 38.4489C1218.16 38.4489 1220.72 35.886 1220.72 32.7245C1220.72 29.5629 1218.16 27 1215 27C1211.84 27 1209.28 29.5629 1209.28 32.7245C1209.28 35.886 1211.84 38.4489 1215 38.4489Z" stroke="white" stroke-width="2"/>
<path d="M1220.72 40.739H1221.13C1221.96 40.7393 1222.77 41.0451 1223.4 41.5992C1224.03 42.1532 1224.43 42.9172 1224.53 43.7478L1224.98 47.3244C1225.02 47.6466 1224.99 47.9737 1224.9 48.284C1224.8 48.5942 1224.64 48.8806 1224.43 49.124C1224.21 49.3674 1223.95 49.5623 1223.65 49.6958C1223.36 49.8292 1223.03 49.8982 1222.71 49.8982H1207.29C1206.97 49.8982 1206.64 49.8292 1206.35 49.6958C1206.05 49.5623 1205.79 49.3674 1205.57 49.124C1205.36 48.8806 1205.2 48.5942 1205.1 48.284C1205.01 47.9737 1204.98 47.6466 1205.02 47.3244L1205.46 43.7478C1205.57 42.9169 1205.97 42.1525 1206.6 41.5984C1207.23 41.0443 1208.04 40.7387 1208.87 40.739H1209.28" stroke="white" stroke-width="2" stroke-linecap="round" stroke-linejoin="round"/>
<circle cx="1215" cy="40" r="23" stroke="white" stroke-width="2"/>
<defs>
</defs>
</svg>
