<svg width="50" height="50" viewBox="30 300 50 50" fill="none" xmlns="http://www.w3.org/2000/svg">
<g clip-path="url(#clip0_1_66)" filter="url(#filter0_d_1_66)">
<rect width="300" height="944" transform="translate(0 5)" fill="white" fill-opacity="0.05"/>

<path d="M39.1094 315.4H42.6649V318.6H39.1094V315.4ZM39.1094 321.8H42.6649V325H39.1094V321.8ZM46.2205 315.4H49.776V318.6H46.2205V315.4ZM46.2205 321.8H49.776V325H46.2205V321.8ZM53.3316 315.4H56.8872V318.6H53.3316V315.4ZM53.3316 321.8H56.8872V325H53.3316V321.8Z" fill="#1C1C1E"/>
<path d="M35.5556 333H60.4444C62.4053 333 64 331.565 64 329.8V307.4C64 305.635 62.4053 304.2 60.4444 304.2H56.8889V301H53.3333V304.2H42.6667V301H39.1111V304.2H35.5556C33.5947 304.2 32 305.635 32 307.4V329.8C32 331.565 33.5947 333 35.5556 333ZM60.4444 310.6L60.4462 329.8H35.5556V310.6H60.4444Z" fill="#1C1C1E"/>
</g>
<defs>
<filter id="filter0_d_1_66" x="-5" y="0" width="310" height="954" filterUnits="userSpaceOnUse" color-interpolation-filters="sRGB">
<feColorMatrix type="matrix" values="0 0 0 0 0.00749999 0 0 0 0 0 0 0 0 0 0.375 0 0 0 0.25 0"/>
<!-- <feBlend mode="normal" in2="BackgroundImageFix" result="effect1_dropShadow_1_66"/> -->
<feBlend mode="normal" in="SourceGraphic" in2="effect1_dropShadow_1_66" result="shape"/>
</filter>

</defs>
</svg>
